<?xml version="1.0" encoding="UTF-8" standalone="no"?>
<svg
   viewBox="0 0 512 512"
   version="1.1"
   id="svg1862"
   sodipodi:docname="github-545454.svg"
   inkscape:version="1.2 (dc2aedaf03, 2022-05-15)"
   xmlns:inkscape="http://www.inkscape.org/namespaces/inkscape"
   xmlns:sodipodi="http://sodipodi.sourceforge.net/DTD/sodipodi-0.dtd"
   xmlns="http://www.w3.org/2000/svg"
   xmlns:svg="http://www.w3.org/2000/svg">
  <defs
     id="defs1866" />
  <sodipodi:namedview
     id="namedview1864"
     pagecolor="#ffffff"
     bordercolor="#000000"
     borderopacity="0.25"
     inkscape:showpageshadow="2"
     inkscape:pageopacity="0.0"
     inkscape:pagecheckerboard="0"
     inkscape:deskcolor="#d1d1d1"
     showgrid="false"
     inkscape:zoom="2.0058594"
     inkscape:cx="148.06621"
     inkscape:cy="255.75073"
     inkscape:window-width="1849"
     inkscape:window-height="1319"
     inkscape:window-x="26"
     inkscape:window-y="23"
     inkscape:window-maximized="0"
     inkscape:current-layer="svg1862" />
  <path
     d="m256 0c-140.609375 0-256 115.390625-256 256 0 119.988281 84.195312 228.984375 196 256v-84.695312c-11.078125 2.425781-21.273438 2.496093-32.550781-.828126-15.128907-4.464843-27.421875-14.542968-36.546875-29.910156-5.816406-9.8125-16.125-20.453125-26.878906-19.671875l-2.636719-29.882812c23.253906-1.992188 43.371093 14.167969 55.3125 34.230469 5.304687 8.921874 11.410156 14.152343 19.246093 16.464843 7.574219 2.230469 15.707032 1.160157 25.183594-2.1875 2.378906-18.972656 11.070313-26.074219 17.636719-36.074219v-.015624c-66.679687-9.945313-93.253906-45.320313-103.800781-73.242188-13.976563-37.074219-6.476563-83.390625 18.238281-112.660156.480469-.570313 1.347656-2.0625 1.011719-3.105469-11.332032-34.230469 2.476562-62.546875 2.984375-65.550781 13.078125 3.867187 15.203125-3.890625 56.808593 21.386718l7.191407 4.320313c3.007812 1.792969 2.0625.769531 5.070312.542969 17.371094-4.71875 35.683594-7.324219 53.726563-7.558594 18.179687.234375 36.375 2.839844 54.464844 7.75l2.328124.234375c-.203124-.03125.632813-.148437 2.035157-.984375 51.972656-31.480469 50.105469-21.191406 64.042969-25.722656.503906 3.007812 14.128906 31.785156 2.917968 65.582031-1.511718 4.65625 45.058594 47.300781 19.246094 115.753906-10.546875 27.933594-37.117188 63.308594-103.796875 73.253907v.015624c8.546875 13.027344 18.816406 19.957032 18.761719 46.832032v105.722656c111.808594-27.015625 196-136.011719 196-256 .003906-140.609375-115.386719-256-255.996094-256zm0 0"
     id="path1860" />
  <path
     style="fill:#ff94ad;stroke-width:0.498539"
     d="M 186.95229,509.27613 C 151.3305,498.88423 120.26197,481.63246 91.133094,456.06961 84.056256,449.85914 70.111435,435.50148 63.866805,427.99611 40.619404,400.05522 24.09503,370.20209 13.037599,336.16744 -13.029343,255.9337 1.3812717,169.59994 52.049152,102.44985 65.969146,84.001701 84.768904,65.323951 103.67815,51.155919 139.37748,24.407664 182.24323,7.2041471 226.08763,2.0287266 239.98821,0.38789404 262.65489,-0.08836128 275.44304,0.99170791 324.46824,5.1323099 369.40967,22.118134 408.53817,51.29565 c 9.73592,7.25992 18.32423,14.779077 28.1951,24.685105 15.88813,15.944717 27.48698,30.761435 38.86805,49.651185 5.34086,8.8645 14.66173,27.73092 18.34944,37.14119 34.8719,88.98593 17.62638,188.84942 -45.8017,265.22298 -6.38387,7.6868 -24.82228,26.26654 -31.86863,32.1129 -28.74691,23.85134 -58.7899,39.96214 -92.174,49.42905 -3.80806,1.07989 -7.10748,1.9634 -7.33203,1.9634 -0.22456,0 -0.49116,-25.96767 -0.59244,-57.70594 -0.20083,-62.93003 -0.0772,-60.17758 -3.11251,-69.30494 -1.78219,-5.35921 -4.47306,-10.01634 -10.43795,-18.06518 -2.66887,-3.6013 -4.77429,-6.61091 -4.6787,-6.68804 0.0956,-0.0771 2.97807,-0.65301 6.40553,-1.27973 53.03044,-9.69681 87.53862,-37.92762 100.13417,-81.9188 7.72943,-26.99579 5.58025,-53.09591 -6.42463,-78.02242 -3.76306,-7.81349 -4.99513,-9.96047 -11.60481,-20.22247 l -4.45292,-6.91346 1.53177,-6.29783 c 4.46805,-18.37034 3.69649,-35.33263 -2.46924,-54.28455 -1.86466,-5.73151 -2.09834,-6.17629 -3.09685,-5.89442 -1.02795,0.29019 -3.83936,0.67943 -12.79416,1.77136 -9.2958,1.13351 -23.68772,7.71427 -46.78022,21.39044 -2.83286,1.67771 -5.66775,3.05039 -6.29977,3.05039 -0.63201,0 -4.37147,-0.77547 -8.30991,-1.72327 -32.29699,-7.77239 -63.29434,-7.78707 -95.4086,-0.0452 -4.03464,0.97265 -7.84585,1.76845 -8.46935,1.76845 -0.6235,0 -5.14096,-2.3982 -10.03881,-5.32933 -12.07623,-7.22705 -27.68738,-15.07832 -33.83216,-17.0151 -4.91111,-1.54794 -7.59165,-2.04831 -16.4518,-3.07101 -2.46777,-0.28484 -4.96654,-0.64759 -5.55283,-0.80609 -0.97129,-0.2626 -1.22498,0.19171 -2.85599,5.11467 -4.00256,12.08106 -5.47066,20.82241 -5.47066,32.57327 0,9.2324 0.57435,14.00247 2.69701,22.39903 0.80205,3.17264 1.45887,6.10907 1.45961,6.52539 5e-4,0.41632 -0.93006,1.87455 -2.06843,3.24051 -10.6795,12.8145 -19.06105,32.1899 -22.42488,51.83896 -1.30676,7.63315 -1.82316,25.13546 -0.96445,32.68788 3.45579,30.3938 17.63775,55.71977 41.1631,73.50853 16.46275,12.44837 34.57223,20.10059 59.4797,25.13336 l 9.12723,1.84424 -2.8727,3.95632 c -5.54005,7.62987 -8.32245,11.96512 -10.02039,15.61274 -1.77446,3.812 -4.11501,12.09335 -4.11501,14.55973 0,1.31358 -0.23141,1.47709 -3.36514,2.37769 -12.82151,3.68477 -21.42321,2.89272 -29.67392,-2.73241 -4.32735,-2.95027 -6.54501,-5.4688 -11.57794,-13.14866 -2.24616,-3.42746 -5.46285,-7.945 -7.1482,-10.03899 -8.99859,-11.18042 -21.46729,-19.58277 -33.23296,-22.39487 -4.3733,-1.04525 -13.649865,-1.76407 -14.494381,-1.12312 -0.37374,0.28364 -0.149373,4.78676 0.752685,15.10671 l 1.285144,14.7026 3.734172,0.77296 c 8.54036,1.76782 15.14108,7.29046 23.17552,19.39029 7.92672,11.93762 13.51656,17.83483 22.15841,23.37683 11.49559,7.37209 27.13279,10.4962 41.61289,8.3137 2.71807,-0.40967 5.01759,-0.74486 5.11003,-0.74486 0.0924,0 0.16807,18.84479 0.16807,41.87731 0,33.18114 -0.12941,41.87277 -0.62318,41.85542 -0.34274,-0.012 -3.98831,-1.00356 -8.10126,-2.20344 z"
     id="path2231" />
  <path
     style="fill:#545454;stroke-width:0.498539;fill-opacity:1"
     d="M 187.94937,509.26397 C 152.76158,498.78691 124.18907,483.40595 95.950789,459.73996 89.098998,453.99759 70.405075,435.2825 64.491829,428.24537 27.54143,384.27212 5.3183459,330.11193 1.213837,274.02968 0.53598244,264.76777 0.84333325,239.27488 1.7287316,231.3223 5.3603399,198.70347 13.387649,171.11527 27.476789,142.83155 40.576153,116.53479 56.287146,95.096357 78.079068,73.782236 98.916406,53.40176 118.73464,39.361804 144.57644,26.673092 171.88737,13.26301 199.13108,5.334695 229.67393,1.9084832 c 5.84157,-0.655291 12.13137,-0.862501 26.82461,-0.8837052 17.28412,-0.0249434 20.08659,0.087634 28.16748,1.1315103 30.13035,3.8921905 55.99719,11.4434277 81.26193,23.7225757 15.90092,7.728154 28.58658,15.418342 42.3946,25.700086 18.16519,13.526182 38.12159,33.47604 52.24159,52.22447 14.32574,19.0216 27.93314,44.34285 36.13721,67.24571 6.3887,17.835 10.83892,37.37451 13.3868,58.77755 1.11927,9.40197 1.28399,40.31996 0.26692,50.10321 -5.68524,54.6881 -26.64234,104.52253 -61.84759,147.06914 -5.72966,6.92446 -27.48245,28.82984 -33.72267,33.95922 -24.16791,19.86571 -52.3018,35.71566 -79.51704,44.79799 -6.46282,2.15678 -18.07086,5.53868 -18.28296,5.3266 -0.0951,-0.0951 -0.29752,-23.14712 -0.44985,-51.2267 -0.32525,-59.95705 -0.56904,-67.17472 -2.4738,-73.23881 -1.88721,-6.00822 -4.96082,-11.65852 -10.69346,-19.65811 -2.73744,-3.81993 -4.92438,-6.99239 -4.85987,-7.04989 0.0645,-0.0575 2.69723,-0.59208 5.8505,-1.18796 55.09082,-10.41057 89.44998,-39.4442 101.20871,-85.52176 2.82639,-11.07546 3.66035,-18.76435 3.3499,-30.88503 -0.56379,-22.0111 -6.43756,-39.43376 -20.9915,-62.26454 l -5.67119,-8.8964 0.94167,-3.56708 c 2.84748,-10.78634 4.02827,-24.52536 2.96305,-34.47653 -0.68841,-6.43113 -2.52085,-15.03096 -4.62091,-21.68647 -1.76828,-5.604 -2.62395,-7.12965 -3.79754,-6.77094 -0.46459,0.142 -4.29464,0.71436 -8.51124,1.27191 -5.31766,0.70314 -9.28896,1.55511 -12.96202,2.78079 -6.70978,2.239 -18.78521,8.09525 -30.54192,14.812 -5.03404,2.87601 -10.12798,5.72178 -11.31986,6.32395 l -2.16708,1.09485 -10.54568,-2.25261 c -18.11465,-3.86939 -30.57578,-5.2983 -46.13902,-5.29074 -15.99104,0.008 -28.32015,1.50096 -47.46324,5.7483 -4.27742,0.94904 -7.99861,1.72553 -8.26932,1.72553 -0.27071,0 -4.623,-2.38292 -9.67176,-5.29538 -17.73929,-10.23321 -30.21031,-16.17789 -37.90237,-18.0673 -3.38043,-0.83034 -13.07457,-2.28628 -18.1399,-2.7244 -1.29611,-0.1121 -2.18069,1.73842 -4.48666,9.38601 -4.87503,16.1677 -5.47444,33.48482 -1.72259,49.7652 0.81022,3.51574 1.47312,6.80309 1.47312,7.30521 0,0.50213 -1.65757,3.12201 -3.68349,5.82196 -9.97264,13.29054 -17.1559,30.53092 -20.53227,49.279 -1.10177,6.11789 -1.57454,28.47985 -0.73564,34.79613 5.87121,44.20574 34.21637,76.90886 79.2922,91.48308 7.80517,2.52362 10.60287,3.25008 21.30186,5.5313 l 8.58912,1.83134 -1.78398,2.47606 c -4.68888,6.50793 -8.93339,13.1631 -10.44613,16.379 -1.81949,3.868 -4.19578,11.60302 -4.20794,13.69713 -0.0145,2.49559 -0.9204,3.01706 -7.96899,4.58724 -5.16754,1.15114 -12.20116,1.23903 -16.18182,0.2022 -7.86703,-2.0491 -12.7366,-6.28398 -21.01591,-18.27673 -6.67487,-9.6687 -12.64895,-16.27818 -19.10868,-21.14107 -5.11765,-3.85258 -12.26758,-7.61126 -17.7501,-9.33115 -4.06137,-1.27407 -15.421985,-2.73301 -16.891271,-2.1692 -1.0751,0.41256 -1.024952,4.7156 0.218754,18.76972 0.545557,6.16492 0.991924,11.35541 0.991924,11.53443 0,0.17902 1.056813,0.48397 2.348473,0.67767 3.31401,0.49696 7.4387,2.11048 10.43471,4.08191 3.71265,2.443 9.31592,8.56413 13.85259,15.13285 8.19064,11.85941 13.67418,17.79847 21.05775,22.80705 11.61015,7.87565 27.54426,11.42565 42.29285,9.42254 3.01616,-0.40965 5.518,-0.70841 5.55966,-0.66392 0.45708,0.48829 0.25781,83.09429 -0.20037,83.05845 -0.20564,-0.016 -3.29036,-0.89762 -6.85491,-1.95896 z"
     id="path3261" />
</svg>
