<?xml version="1.0" encoding="UTF-8" standalone="no"?>
<svg
   viewBox="0 0 512 512"
   version="1.1"
   id="svg1862"
   sodipodi:docname="github-pink.svg"
   inkscape:version="1.2 (dc2aedaf03, 2022-05-15)"
   xmlns:inkscape="http://www.inkscape.org/namespaces/inkscape"
   xmlns:sodipodi="http://sodipodi.sourceforge.net/DTD/sodipodi-0.dtd"
   xmlns="http://www.w3.org/2000/svg"
   xmlns:svg="http://www.w3.org/2000/svg">
  <defs
     id="defs1866" />
  <sodipodi:namedview
     id="namedview1864"
     pagecolor="#ffffff"
     bordercolor="#000000"
     borderopacity="0.25"
     inkscape:showpageshadow="2"
     inkscape:pageopacity="0.0"
     inkscape:pagecheckerboard="0"
     inkscape:deskcolor="#d1d1d1"
     showgrid="false"
     inkscape:zoom="2.0058594"
     inkscape:cx="256"
     inkscape:cy="255.75073"
     inkscape:window-width="1849"
     inkscape:window-height="1319"
     inkscape:window-x="26"
     inkscape:window-y="23"
     inkscape:window-maximized="0"
     inkscape:current-layer="svg1862" />
  <path
     d="m256 0c-140.609375 0-256 115.390625-256 256 0 119.988281 84.195312 228.984375 196 256v-84.695312c-11.078125 2.425781-21.273438 2.496093-32.550781-.828126-15.128907-4.464843-27.421875-14.542968-36.546875-29.910156-5.816406-9.8125-16.125-20.453125-26.878906-19.671875l-2.636719-29.882812c23.253906-1.992188 43.371093 14.167969 55.3125 34.230469 5.304687 8.921874 11.410156 14.152343 19.246093 16.464843 7.574219 2.230469 15.707032 1.160157 25.183594-2.1875 2.378906-18.972656 11.070313-26.074219 17.636719-36.074219v-.015624c-66.679687-9.945313-93.253906-45.320313-103.800781-73.242188-13.976563-37.074219-6.476563-83.390625 18.238281-112.660156.480469-.570313 1.347656-2.0625 1.011719-3.105469-11.332032-34.230469 2.476562-62.546875 2.984375-65.550781 13.078125 3.867187 15.203125-3.890625 56.808593 21.386718l7.191407 4.320313c3.007812 1.792969 2.0625.769531 5.070312.542969 17.371094-4.71875 35.683594-7.324219 53.726563-7.558594 18.179687.234375 36.375 2.839844 54.464844 7.75l2.328124.234375c-.203124-.03125.632813-.148437 2.035157-.984375 51.972656-31.480469 50.105469-21.191406 64.042969-25.722656.503906 3.007812 14.128906 31.785156 2.917968 65.582031-1.511718 4.65625 45.058594 47.300781 19.246094 115.753906-10.546875 27.933594-37.117188 63.308594-103.796875 73.253907v.015624c8.546875 13.027344 18.816406 19.957032 18.761719 46.832032v105.722656c111.808594-27.015625 196-136.011719 196-256 .003906-140.609375-115.386719-256-255.996094-256zm0 0"
     id="path1860" />
  <path
     style="fill:#ff94ad;stroke-width:0.498539"
     d="M 186.95229,509.27613 C 151.3305,498.88423 120.26197,481.63246 91.133094,456.06961 84.056256,449.85914 70.111435,435.50148 63.866805,427.99611 40.619404,400.05522 24.09503,370.20209 13.037599,336.16744 -13.029343,255.9337 1.3812717,169.59994 52.049152,102.44985 65.969146,84.001701 84.768904,65.323951 103.67815,51.155919 139.37748,24.407664 182.24323,7.2041471 226.08763,2.0287266 239.98821,0.38789404 262.65489,-0.08836128 275.44304,0.99170791 324.46824,5.1323099 369.40967,22.118134 408.53817,51.29565 c 9.73592,7.25992 18.32423,14.779077 28.1951,24.685105 15.88813,15.944717 27.48698,30.761435 38.86805,49.651185 5.34086,8.8645 14.66173,27.73092 18.34944,37.14119 34.8719,88.98593 17.62638,188.84942 -45.8017,265.22298 -6.38387,7.6868 -24.82228,26.26654 -31.86863,32.1129 -28.74691,23.85134 -58.7899,39.96214 -92.174,49.42905 -3.80806,1.07989 -7.10748,1.9634 -7.33203,1.9634 -0.22456,0 -0.49116,-25.96767 -0.59244,-57.70594 -0.20083,-62.93003 -0.0772,-60.17758 -3.11251,-69.30494 -1.78219,-5.35921 -4.47306,-10.01634 -10.43795,-18.06518 -2.66887,-3.6013 -4.77429,-6.61091 -4.6787,-6.68804 0.0956,-0.0771 2.97807,-0.65301 6.40553,-1.27973 53.03044,-9.69681 87.53862,-37.92762 100.13417,-81.9188 7.72943,-26.99579 5.58025,-53.09591 -6.42463,-78.02242 -3.76306,-7.81349 -4.99513,-9.96047 -11.60481,-20.22247 l -4.45292,-6.91346 1.53177,-6.29783 c 4.46805,-18.37034 3.69649,-35.33263 -2.46924,-54.28455 -1.86466,-5.73151 -2.09834,-6.17629 -3.09685,-5.89442 -1.02795,0.29019 -3.83936,0.67943 -12.79416,1.77136 -9.2958,1.13351 -23.68772,7.71427 -46.78022,21.39044 -2.83286,1.67771 -5.66775,3.05039 -6.29977,3.05039 -0.63201,0 -4.37147,-0.77547 -8.30991,-1.72327 -32.29699,-7.77239 -63.29434,-7.78707 -95.4086,-0.0452 -4.03464,0.97265 -7.84585,1.76845 -8.46935,1.76845 -0.6235,0 -5.14096,-2.3982 -10.03881,-5.32933 -12.07623,-7.22705 -27.68738,-15.07832 -33.83216,-17.0151 -4.91111,-1.54794 -7.59165,-2.04831 -16.4518,-3.07101 -2.46777,-0.28484 -4.96654,-0.64759 -5.55283,-0.80609 -0.97129,-0.2626 -1.22498,0.19171 -2.85599,5.11467 -4.00256,12.08106 -5.47066,20.82241 -5.47066,32.57327 0,9.2324 0.57435,14.00247 2.69701,22.39903 0.80205,3.17264 1.45887,6.10907 1.45961,6.52539 5e-4,0.41632 -0.93006,1.87455 -2.06843,3.24051 -10.6795,12.8145 -19.06105,32.1899 -22.42488,51.83896 -1.30676,7.63315 -1.82316,25.13546 -0.96445,32.68788 3.45579,30.3938 17.63775,55.71977 41.1631,73.50853 16.46275,12.44837 34.57223,20.10059 59.4797,25.13336 l 9.12723,1.84424 -2.8727,3.95632 c -5.54005,7.62987 -8.32245,11.96512 -10.02039,15.61274 -1.77446,3.812 -4.11501,12.09335 -4.11501,14.55973 0,1.31358 -0.23141,1.47709 -3.36514,2.37769 -12.82151,3.68477 -21.42321,2.89272 -29.67392,-2.73241 -4.32735,-2.95027 -6.54501,-5.4688 -11.57794,-13.14866 -2.24616,-3.42746 -5.46285,-7.945 -7.1482,-10.03899 -8.99859,-11.18042 -21.46729,-19.58277 -33.23296,-22.39487 -4.3733,-1.04525 -13.649865,-1.76407 -14.494381,-1.12312 -0.37374,0.28364 -0.149373,4.78676 0.752685,15.10671 l 1.285144,14.7026 3.734172,0.77296 c 8.54036,1.76782 15.14108,7.29046 23.17552,19.39029 7.92672,11.93762 13.51656,17.83483 22.15841,23.37683 11.49559,7.37209 27.13279,10.4962 41.61289,8.3137 2.71807,-0.40967 5.01759,-0.74486 5.11003,-0.74486 0.0924,0 0.16807,18.84479 0.16807,41.87731 0,33.18114 -0.12941,41.87277 -0.62318,41.85542 -0.34274,-0.012 -3.98831,-1.00356 -8.10126,-2.20344 z"
     id="path2231" />
</svg>
