<?xml version="1.0" encoding="UTF-8" standalone="no"?>
<svg
   xmlns:dc="http://purl.org/dc/elements/1.1/"
   xmlns:cc="http://creativecommons.org/ns#"
   xmlns:rdf="http://www.w3.org/1999/02/22-rdf-syntax-ns#"
   xmlns:svg="http://www.w3.org/2000/svg"
   xmlns="http://www.w3.org/2000/svg"
   xmlns:sodipodi="http://sodipodi.sourceforge.net/DTD/sodipodi-0.dtd"
   xmlns:inkscape="http://www.inkscape.org/namespaces/inkscape"
   viewBox="0 0 512 512"
   version="1.1"
   id="svg5390"
   sodipodi:docname="github-f2f2f2.svg"
   inkscape:version="0.92.2 5c3e80d, 2017-08-06">
  <metadata
     id="metadata5396">
    <rdf:RDF>
      <cc:Work
         rdf:about="">
        <dc:format>image/svg+xml</dc:format>
        <dc:type
           rdf:resource="http://purl.org/dc/dcmitype/StillImage" />
        <dc:title></dc:title>
      </cc:Work>
    </rdf:RDF>
  </metadata>
  <defs
     id="defs5394" />
  <sodipodi:namedview
     pagecolor="#ffffff"
     bordercolor="#666666"
     borderopacity="1"
     objecttolerance="10"
     gridtolerance="10"
     guidetolerance="10"
     inkscape:pageopacity="0"
     inkscape:pageshadow="2"
     inkscape:window-width="1401"
     inkscape:window-height="1010"
     id="namedview5392"
     showgrid="false"
     inkscape:zoom="0.4609375"
     inkscape:cx="-26.033898"
     inkscape:cy="256"
     inkscape:window-x="0"
     inkscape:window-y="0"
     inkscape:window-maximized="0"
     inkscape:current-layer="svg5390" />
  <path
     d="m256 0c-140.609375 0-256 115.390625-256 256 0 119.988281 84.195312 228.984375 196 256v-84.695312c-11.078125 2.425781-21.273438 2.496093-32.550781-.828126-15.128907-4.464843-27.421875-14.542968-36.546875-29.910156-5.816406-9.8125-16.125-20.453125-26.878906-19.671875l-2.636719-29.882812c23.253906-1.992188 43.371093 14.167969 55.3125 34.230469 5.304687 8.921874 11.410156 14.152343 19.246093 16.464843 7.574219 2.230469 15.707032 1.160157 25.183594-2.1875 2.378906-18.972656 11.070313-26.074219 17.636719-36.074219v-.015624c-66.679687-9.945313-93.253906-45.320313-103.800781-73.242188-13.976563-37.074219-6.476563-83.390625 18.238281-112.660156.480469-.570313 1.347656-2.0625 1.011719-3.105469-11.332032-34.230469 2.476562-62.546875 2.984375-65.550781 13.078125 3.867187 15.203125-3.890625 56.808593 21.386718l7.191407 4.320313c3.007812 1.792969 2.0625.769531 5.070312.542969 17.371094-4.71875 35.683594-7.324219 53.726563-7.558594 18.179687.234375 36.375 2.839844 54.464844 7.75l2.328124.234375c-.203124-.03125.632813-.148437 2.035157-.984375 51.972656-31.480469 50.105469-21.191406 64.042969-25.722656.503906 3.007812 14.128906 31.785156 2.917968 65.582031-1.511718 4.65625 45.058594 47.300781 19.246094 115.753906-10.546875 27.933594-37.117188 63.308594-103.796875 73.253907v.015624c8.546875 13.027344 18.816406 19.957032 18.761719 46.832032v105.722656c111.808594-27.015625 196-136.011719 196-256 .003906-140.609375-115.386719-256-255.996094-256zm0 0"
     id="path5388" />
  <path
     style="opacity:1;fill:#f2f2f2;fill-opacity:0.94901961;fill-rule:nonzero;stroke:none;stroke-width:2.16949153;stroke-linejoin:round;stroke-miterlimit:4;stroke-dasharray:none;stroke-dashoffset:0;stroke-opacity:1;paint-order:normal"
     d="M 177.88186,505.54713 C 104.04967,479.93967 43.199373,419.07497 16.527318,344.1544 1.7301634,302.58987 -2.4262251,246.89636 6.2083016,205.88475 28.324628,100.83832 113.42892,19.930624 218.46025,4.0991983 338.57419,-14.005638 456.23329,57.320402 496.5202,172.66171 c 18.99314,54.37729 18.30658,118.20608 -1.866,173.48027 -25.71386,70.45762 -82.10311,128.99717 -149.70505,155.4137 -8.94915,3.49702 -18.90091,6.98951 -22.11503,7.76107 l -5.84386,1.40286 -0.66462,-62.57933 -0.66462,-62.57931 -7.93841,-12.78178 -7.93841,-12.78177 12.27739,-2.50861 c 38.23371,-7.81218 70.46602,-30.68693 85.03463,-60.34764 17.89126,-36.42539 15.94837,-77.18564 -5.33222,-111.86659 l -7.32173,-11.93221 1.01914,-23.8644 c 1.28577,-30.10741 -1.88001,-43.03982 -10.79027,-44.07876 -9.16684,-1.06887 -27.01095,5.04859 -45.38168,15.55809 l -16.74442,9.57914 -14.71321,-3.32968 c -19.45337,-4.40242 -64.21029,-4.40242 -83.66366,0 l -14.7132,3.32968 -16.74444,-9.57914 c -18.38369,-10.51692 -36.21228,-16.62562 -45.40726,-15.55809 -4.82044,0.55964 -6.42242,2.31742 -8.53666,9.36689 -2.80144,9.34081 -3.45387,42.15017 -1.01235,50.90919 1.12167,4.02404 -0.23459,7.91445 -5.47263,15.69814 -19.5998,29.12518 -24.336642,72.51266 -11.62563,106.4859 12.66518,33.85071 47.68093,61.12926 89.4132,69.65617 l 12.40819,2.53529 -6.43461,9.69663 c -3.53903,5.33315 -7.04798,12.94004 -7.79766,16.90415 -0.93354,4.93634 -3.03132,7.8418 -6.65719,9.22034 -14.56086,5.53605 -28.13945,-0.45429 -39.73497,-17.52944 -13.67715,-20.1405 -27.20451,-29.67247 -45.12214,-31.79503 l -10.188447,-1.20695 0.6207,11.62806 c 0.981502,18.38726 1.915915,20.70487 8.911927,22.10408 6.21144,1.24229 11.37663,6.52674 26.84759,27.46754 10.58696,14.33006 28.2205,22.78923 47.52039,22.79658 l 14.80568,0.007 0.003,40.67797 c 0.002,22.37288 -0.72942,40.62069 -1.62433,40.5507 -0.89492,-0.0701 -7.98028,-2.33077 -15.74526,-5.02391 z"
     id="path5941"
     inkscape:connector-curvature="0" />
</svg>
