<?xml version="1.0" encoding="UTF-8" standalone="no"?>
<svg
   viewBox="0 0 512 512"
   version="1.1"
   id="svg2296"
   sodipodi:docname="linkedin-pink.svg"
   inkscape:version="1.2 (dc2aedaf03, 2022-05-15)"
   xmlns:inkscape="http://www.inkscape.org/namespaces/inkscape"
   xmlns:sodipodi="http://sodipodi.sourceforge.net/DTD/sodipodi-0.dtd"
   xmlns="http://www.w3.org/2000/svg"
   xmlns:svg="http://www.w3.org/2000/svg">
  <defs
     id="defs2300" />
  <sodipodi:namedview
     id="namedview2298"
     pagecolor="#ffffff"
     bordercolor="#000000"
     borderopacity="0.25"
     inkscape:showpageshadow="2"
     inkscape:pageopacity="0.0"
     inkscape:pagecheckerboard="0"
     inkscape:deskcolor="#d1d1d1"
     showgrid="false"
     inkscape:zoom="2.0058594"
     inkscape:cx="256"
     inkscape:cy="255.75073"
     inkscape:window-width="1849"
     inkscape:window-height="1319"
     inkscape:window-x="26"
     inkscape:window-y="23"
     inkscape:window-maximized="0"
     inkscape:current-layer="svg2296" />
  <path
     d="m437 0h-362c-41.351562 0-75 33.648438-75 75v362c0 41.351562 33.648438 75 75 75h362c41.351562 0 75-33.648438 75-75v-362c0-41.351562-33.648438-75-75-75zm-256 406h-60v-210h60zm0-240h-60v-60h60zm210 240h-60v-120c0-16.539062-13.460938-30-30-30s-30 13.460938-30 30v120h-60v-210h60v11.308594c15.71875-4.886719 25.929688-11.308594 45-11.308594 40.691406.042969 75 36.546875 75 79.6875zm0 0"
     id="path2294" />
  <path
     style="fill:#ff94ad;stroke-width:0.498539"
     d="M 69.546251,511.46911 C 39.65275,509.26147 13.740695,489.09479 4.1973323,460.60975 3.3509426,458.08345 2.1803481,453.86223 1.5960112,451.22927 L 0.53358043,446.44206 0.36322746,259.48978 C 0.23783282,121.87663 0.34297055,71.124183 0.76160758,67.182302 3.4622071,41.753477 18.885158,19.651862 42.051146,8.012987 50.510714,3.762796 59.986857,1.2580855 70.526155,0.48654328 c 8.29291,-0.60709231 362.654785,-0.60709231 370.947685,0 7.57906,0.55483402 12.54115,1.52594742 19.34621,3.78617562 12.21784,4.0580251 24.07456,11.9810771 32.38865,21.6431651 8.93358,10.382011 14.84337,22.688687 17.36064,36.152276 0.90006,4.813916 0.93212,11.484469 0.93212,193.93184 0,182.44737 -0.0319,189.11792 -0.93212,193.93184 -4.35339,23.28379 -18.83498,42.85161 -39.61145,53.52374 -9.13808,4.69395 -18.50639,7.25425 -29.48405,8.0579 -7.59356,0.55587 -364.375818,0.51334 -371.927589,-0.0444 z M 181.21908,301.11782 V 195.926 h -30.16163 -30.16164 v 105.19182 105.19182 h 30.16164 30.16163 z m 90.35101,41.75268 0.1339,-63.43915 1.1629,-3.1023 c 4.47941,-11.94985 16.02339,-20.07978 28.51201,-20.07978 3.74802,0 9.79932,1.59256 13.60527,3.58058 4.48813,2.34437 10.19588,8.24225 12.49223,12.90836 3.42089,6.95116 3.28626,4.00493 3.29586,72.12644 l 0.009,61.44499 h 30.17475 30.17477 l -0.15592,-70.91723 -0.15591,-70.91724 -1.13221,-4.98539 c -6.65626,-29.30908 -26.64444,-52.14915 -52.92301,-60.474 -8.00617,-2.53629 -13.83862,-3.26305 -23.62285,-2.94357 -10.66599,0.34828 -14.89098,1.29029 -30.21941,6.73775 l -11.21714,3.98638 -0.14096,-5.43517 -0.14096,-5.43517 h -30.39458 -30.39458 v 105.19182 105.19182 h 30.40164 30.40165 z M 181.21908,135.852 v -30.16164 h -30.16163 -30.16164 v 30.16164 30.16163 h 30.16164 30.16163 z"
     id="path2302" />
</svg>
