<?xml version="1.0" encoding="UTF-8" standalone="no"?>
<svg
   viewBox="0 -47 512.00203 512"
   version="1.1"
   id="svg44"
   sodipodi:docname="twitter-545454.svg"
   inkscape:version="1.2 (dc2aedaf03, 2022-05-15)"
   xmlns:inkscape="http://www.inkscape.org/namespaces/inkscape"
   xmlns:sodipodi="http://sodipodi.sourceforge.net/DTD/sodipodi-0.dtd"
   xmlns="http://www.w3.org/2000/svg"
   xmlns:svg="http://www.w3.org/2000/svg">
  <defs
     id="defs48" />
  <sodipodi:namedview
     id="namedview46"
     pagecolor="#ffffff"
     bordercolor="#000000"
     borderopacity="0.25"
     inkscape:showpageshadow="2"
     inkscape:pageopacity="0.0"
     inkscape:pagecheckerboard="0"
     inkscape:deskcolor="#d1d1d1"
     showgrid="false"
     inkscape:zoom="2.0058594"
     inkscape:cx="148.56475"
     inkscape:cy="256.49854"
     inkscape:window-width="1849"
     inkscape:window-height="1319"
     inkscape:window-x="26"
     inkscape:window-y="23"
     inkscape:window-maximized="0"
     inkscape:current-layer="svg44" />
  <path
     d="m191.011719 419.042969c-22.140625 0-44.929688-1.792969-67.855469-5.386719-40.378906-6.335938-81.253906-27.457031-92.820312-33.78125l-30.335938-16.585938 32.84375-10.800781c35.902344-11.804687 57.742188-19.128906 84.777344-30.597656-27.070313-13.109375-47.933594-36.691406-57.976563-67.175781l-7.640625-23.195313 6.265625.957031c-5.941406-5.988281-10.632812-12.066406-14.269531-17.59375-12.933594-19.644531-19.78125-43.648437-18.324219-64.21875l1.4375-20.246093 12.121094 4.695312c-5.113281-9.65625-8.808594-19.96875-10.980469-30.777343-5.292968-26.359376-.863281-54.363282 12.476563-78.851563l10.558593-19.382813 14.121094 16.960938c44.660156 53.648438 101.226563 85.472656 168.363282 94.789062-2.742188-18.902343-.6875-37.144531 6.113281-53.496093 7.917969-19.039063 22.003906-35.183594 40.722656-46.691407 20.789063-12.777343 46-18.96875 70.988281-17.433593 26.511719 1.628906 50.582032 11.5625 69.699219 28.746093 9.335937-2.425781 16.214844-5.015624 25.511719-8.515624 5.59375-2.105469 11.9375-4.496094 19.875-7.230469l29.25-10.078125-19.074219 54.476562c1.257813-.105468 2.554687-.195312 3.910156-.253906l31.234375-1.414062-18.460937 25.230468c-1.058594 1.445313-1.328125 1.855469-1.703125 2.421875-1.488282 2.242188-3.339844 5.03125-28.679688 38.867188-6.34375 8.472656-9.511718 19.507812-8.921875 31.078125 2.246094 43.96875-3.148437 83.75-16.042969 118.234375-12.195312 32.625-31.09375 60.617187-56.164062 83.199219-31.023438 27.9375-70.582031 47.066406-117.582031 56.847656-23.054688 4.796875-47.8125 7.203125-73.4375 7.203125zm0 0"
     id="path42" />
  <path
     style="fill:#545454;stroke-width:0.498539;fill-opacity:1;stroke:#545454;stroke-opacity:1"
     d="m 175.73515,465.53791 c -13.85374,-0.47153 -35.9328,-2.60401 -50.45442,-4.87306 C 101.60889,456.96604 77.166157,449.02633 48.607595,435.75918 44.08335,433.6574 31.471258,427.09243 20.580723,421.17037 L 0.77975292,410.40297 39.275952,397.57913 c 37.62905,-12.53496 51.584391,-17.48329 68.074498,-24.13807 12.12509,-4.89322 11.48161,-4.1792 6.29412,-6.98402 -21.831304,-11.80398 -39.124196,-30.59755 -49.384417,-53.67001 -2.3553,-5.29644 -11.924884,-33.26121 -11.520434,-33.66567 0.122671,-0.12266 1.48655,-0.0249 3.030851,0.21728 1.544295,0.24217 2.807814,0.33941 2.807814,0.21609 0,-0.12332 -1.493659,-1.82801 -3.319241,-3.7882 -12.973502,-13.93014 -23.276217,-33.9562 -27.302993,-53.07063 -2.275128,-10.79964 -2.572726,-16.85807 -1.557335,-31.70388 0.489536,-7.15739 0.919492,-13.04618 0.95546,-13.0862 0.03596,-0.04 2.612048,0.91345 5.724626,2.11879 3.112577,1.20536 5.863596,2.19155 6.113375,2.19155 0.24978,0 -0.357519,-1.61174 -1.349553,-3.58166 -4.771048,-9.47404 -8.745399,-22.42722 -10.449836,-34.05806 -1.17257,-8.00146 -1.18807,-22.29014 -0.03299,-30.41091 1.619304,-11.38448 4.892475,-22.839711 9.370291,-32.79353 1.777817,-3.951941 9.148822,-17.971019 13.333509,-25.359301 l 1.312011,-2.316416 5.221588,6.302972 c 25.570651,30.866281 43.057614,47.400735 67.289754,63.624515 31.30491,20.9591 63.68778,33.74909 101.70204,40.1684 4.52425,0.76399 8.28069,1.33462 8.34766,1.26806 0.067,-0.0666 -0.0944,-1.78619 -0.35851,-3.82139 -0.64387,-4.9609 -0.63694,-19.16143 0.0119,-24.40284 1.82839,-14.76972 7.20884,-29.41074 15.19029,-41.335134 13.94181,-20.829255 36.36061,-36.532672 62.30816,-43.644225 17.20351,-4.715037 33.40409,-5.753346 50.60175,-3.243108 12.25982,1.789492 22.6775,5.050715 34.14995,10.690547 8.24944,4.055404 14.14151,7.790787 20.93866,13.274431 l 4.48685,3.619801 4.2212,-1.116697 c 4.03012,-1.066149 11.8448,-3.796104 29.92875,-10.455212 10.56733,-3.891238 39.58966,-13.946085 39.77731,-13.780934 0.0789,0.06942 -4.01537,12.014021 -9.09834,26.543551 -5.08297,14.529531 -9.24177,26.695 -9.24177,27.03438 0,0.45218 0.76594,0.5402 2.8666,0.32945 4.24588,-0.426 29.65956,-1.45864 30.58096,-1.24262 0.58414,0.13696 -1.03891,2.68263 -6.15781,9.65822 -3.82305,5.20974 -9.10374,12.50088 -11.73486,16.20253 -2.6311,3.70166 -10.67763,14.64548 -17.88116,24.31961 -7.20354,9.67412 -13.87615,18.98435 -14.82803,20.68939 -2.26076,4.04951 -4.57845,11.09614 -5.23906,15.92868 -0.33951,2.48355 -0.41528,9.84365 -0.21298,20.68939 0.85988,46.09998 -5.56417,82.94358 -20.62018,118.26223 -14.23077,33.38275 -38.5389,64.01169 -67.94777,85.6161 -48.78632,35.83952 -114.04384,53.24494 -189.94353,50.66153 z"
     id="path324"
     transform="translate(0,-47)" />
</svg>
